<mxfile host="app.diagrams.net" agent="Mozilla/5.0 (Windows NT 10.0; Win64; x64) AppleWebKit/537.36 (KHTML, like Gecko) Chrome/134.0.0.0 Safari/537.36" version="26.1.1">
  <diagram name="Page-1" id="pptqu2lHfUGMLJrltkeG">
    <mxGraphModel dx="2438" dy="892" grid="1" gridSize="10" guides="1" tooltips="1" connect="1" arrows="1" fold="1" page="1" pageScale="1" pageWidth="850" pageHeight="1100" math="0" shadow="0">
      <root>
        <mxCell id="0" />
        <mxCell id="1" parent="0" />
        <mxCell id="m_NOYqVsaq_1kLiZfR2D-7" style="edgeStyle=orthogonalEdgeStyle;rounded=0;orthogonalLoop=1;jettySize=auto;html=1;entryX=0.5;entryY=0;entryDx=0;entryDy=0;endArrow=none;startFill=0;exitX=0.332;exitY=0.163;exitDx=0;exitDy=0;exitPerimeter=0;" edge="1" parent="1" source="m_NOYqVsaq_1kLiZfR2D-100" target="m_NOYqVsaq_1kLiZfR2D-4">
          <mxGeometry relative="1" as="geometry">
            <mxPoint x="384.4000000000001" y="190.05" as="sourcePoint" />
            <Array as="points">
              <mxPoint x="372" y="190" />
              <mxPoint x="485" y="190" />
            </Array>
          </mxGeometry>
        </mxCell>
        <mxCell id="m_NOYqVsaq_1kLiZfR2D-45" style="edgeStyle=orthogonalEdgeStyle;rounded=0;orthogonalLoop=1;jettySize=auto;html=1;entryX=0.5;entryY=1;entryDx=0;entryDy=0;endArrow=none;startFill=0;" edge="1" parent="1" source="m_NOYqVsaq_1kLiZfR2D-2" target="m_NOYqVsaq_1kLiZfR2D-43">
          <mxGeometry relative="1" as="geometry" />
        </mxCell>
        <mxCell id="m_NOYqVsaq_1kLiZfR2D-47" value="" style="edgeStyle=orthogonalEdgeStyle;rounded=0;orthogonalLoop=1;jettySize=auto;html=1;entryX=0.52;entryY=0.986;entryDx=0;entryDy=0;entryPerimeter=0;endArrow=none;startFill=0;" edge="1" parent="1">
          <mxGeometry relative="1" as="geometry">
            <mxPoint x="359.6353846153846" y="100.56" as="sourcePoint" />
            <mxPoint x="360.37000000000046" y="60.00000000000006" as="targetPoint" />
            <Array as="points">
              <mxPoint x="360" y="81" />
              <mxPoint x="360" y="81" />
            </Array>
          </mxGeometry>
        </mxCell>
        <mxCell id="m_NOYqVsaq_1kLiZfR2D-2" value="&lt;font style=&quot;font-size: 21px;&quot;&gt;user&lt;/font&gt;" style="rounded=0;whiteSpace=wrap;html=1;" vertex="1" parent="1">
          <mxGeometry x="280" y="100" width="150" height="50" as="geometry" />
        </mxCell>
        <mxCell id="m_NOYqVsaq_1kLiZfR2D-4" value="Admin" style="rounded=0;whiteSpace=wrap;html=1;" vertex="1" parent="1">
          <mxGeometry x="425" y="240" width="120" height="60" as="geometry" />
        </mxCell>
        <mxCell id="m_NOYqVsaq_1kLiZfR2D-6" style="edgeStyle=orthogonalEdgeStyle;rounded=0;orthogonalLoop=1;jettySize=auto;html=1;entryX=0.435;entryY=0.078;entryDx=0;entryDy=0;entryPerimeter=0;endArrow=none;startFill=0;exitX=0.344;exitY=0.831;exitDx=0;exitDy=0;exitPerimeter=0;" edge="1" parent="1" source="m_NOYqVsaq_1kLiZfR2D-100">
          <mxGeometry relative="1" as="geometry">
            <mxPoint x="323.4399999999998" y="191.44000000000005" as="sourcePoint" />
            <mxPoint x="212.19999999999982" y="236.68" as="targetPoint" />
            <Array as="points">
              <mxPoint x="327" y="191" />
              <mxPoint x="212" y="190" />
            </Array>
          </mxGeometry>
        </mxCell>
        <mxCell id="m_NOYqVsaq_1kLiZfR2D-27" style="edgeStyle=orthogonalEdgeStyle;rounded=0;orthogonalLoop=1;jettySize=auto;html=1;entryX=0.5;entryY=1;entryDx=0;entryDy=0;endArrow=none;startFill=0;" edge="1" parent="1" source="m_NOYqVsaq_1kLiZfR2D-8" target="m_NOYqVsaq_1kLiZfR2D-23">
          <mxGeometry relative="1" as="geometry">
            <Array as="points">
              <mxPoint x="-275" y="240" />
            </Array>
          </mxGeometry>
        </mxCell>
        <mxCell id="m_NOYqVsaq_1kLiZfR2D-29" style="edgeStyle=orthogonalEdgeStyle;rounded=0;orthogonalLoop=1;jettySize=auto;html=1;entryX=0.5;entryY=0;entryDx=0;entryDy=0;exitX=0.413;exitY=0.998;exitDx=0;exitDy=0;exitPerimeter=0;endArrow=none;startFill=0;" edge="1" parent="1" target="m_NOYqVsaq_1kLiZfR2D-28">
          <mxGeometry relative="1" as="geometry">
            <mxPoint x="-160.43999999999983" y="286.8799999999999" as="sourcePoint" />
            <mxPoint x="-250" y="417" as="targetPoint" />
            <Array as="points">
              <mxPoint x="-250" y="287" />
            </Array>
          </mxGeometry>
        </mxCell>
        <mxCell id="m_NOYqVsaq_1kLiZfR2D-51" value="" style="edgeStyle=orthogonalEdgeStyle;rounded=0;orthogonalLoop=1;jettySize=auto;html=1;endArrow=none;startFill=0;" edge="1" parent="1" source="m_NOYqVsaq_1kLiZfR2D-8" target="m_NOYqVsaq_1kLiZfR2D-50">
          <mxGeometry relative="1" as="geometry">
            <Array as="points">
              <mxPoint x="-150" y="210" />
              <mxPoint x="-150" y="210" />
            </Array>
          </mxGeometry>
        </mxCell>
        <mxCell id="m_NOYqVsaq_1kLiZfR2D-8" value="&lt;font style=&quot;font-size: 15px;&quot;&gt;Order&lt;/font&gt;" style="rounded=0;whiteSpace=wrap;html=1;" vertex="1" parent="1">
          <mxGeometry x="-210" y="240" width="120" height="60" as="geometry" />
        </mxCell>
        <mxCell id="m_NOYqVsaq_1kLiZfR2D-14" style="edgeStyle=orthogonalEdgeStyle;rounded=0;orthogonalLoop=1;jettySize=auto;html=1;endArrow=none;startFill=0;entryX=0;entryY=0.5;entryDx=0;entryDy=0;exitX=0.5;exitY=1;exitDx=0;exitDy=0;" edge="1" parent="1" source="m_NOYqVsaq_1kLiZfR2D-10" target="m_NOYqVsaq_1kLiZfR2D-13">
          <mxGeometry relative="1" as="geometry">
            <mxPoint x="-190" y="630" as="sourcePoint" />
            <mxPoint x="60" y="756" as="targetPoint" />
            <Array as="points">
              <mxPoint x="-440" y="720" />
            </Array>
          </mxGeometry>
        </mxCell>
        <mxCell id="m_NOYqVsaq_1kLiZfR2D-99" style="edgeStyle=orthogonalEdgeStyle;rounded=0;orthogonalLoop=1;jettySize=auto;html=1;entryX=1;entryY=0.5;entryDx=0;entryDy=0;endArrow=none;startFill=0;" edge="1" parent="1" source="m_NOYqVsaq_1kLiZfR2D-10" target="m_NOYqVsaq_1kLiZfR2D-98">
          <mxGeometry relative="1" as="geometry">
            <Array as="points">
              <mxPoint x="-460" y="430" />
            </Array>
          </mxGeometry>
        </mxCell>
        <mxCell id="m_NOYqVsaq_1kLiZfR2D-103" style="edgeStyle=orthogonalEdgeStyle;rounded=0;orthogonalLoop=1;jettySize=auto;html=1;entryX=1;entryY=0.5;entryDx=0;entryDy=0;endArrow=none;startFill=0;" edge="1" parent="1" source="m_NOYqVsaq_1kLiZfR2D-10" target="m_NOYqVsaq_1kLiZfR2D-38">
          <mxGeometry relative="1" as="geometry">
            <Array as="points">
              <mxPoint x="-480" y="530" />
            </Array>
          </mxGeometry>
        </mxCell>
        <mxCell id="m_NOYqVsaq_1kLiZfR2D-115" style="edgeStyle=orthogonalEdgeStyle;rounded=0;orthogonalLoop=1;jettySize=auto;html=1;entryX=1;entryY=0.5;entryDx=0;entryDy=0;endArrow=none;startFill=0;" edge="1" parent="1" source="m_NOYqVsaq_1kLiZfR2D-10" target="m_NOYqVsaq_1kLiZfR2D-114">
          <mxGeometry relative="1" as="geometry">
            <Array as="points">
              <mxPoint x="-490" y="640" />
            </Array>
          </mxGeometry>
        </mxCell>
        <mxCell id="m_NOYqVsaq_1kLiZfR2D-10" value="OrderItem" style="rounded=0;whiteSpace=wrap;html=1;" vertex="1" parent="1">
          <mxGeometry x="-500" y="560" width="120" height="60" as="geometry" />
        </mxCell>
        <mxCell id="m_NOYqVsaq_1kLiZfR2D-15" value="Images" style="rounded=0;whiteSpace=wrap;html=1;" vertex="1" parent="1">
          <mxGeometry x="295" y="900" width="120" height="60" as="geometry" />
        </mxCell>
        <mxCell id="m_NOYqVsaq_1kLiZfR2D-20" value="Relationship" style="shape=rhombus;perimeter=rhombusPerimeter;whiteSpace=wrap;html=1;align=center;" vertex="1" parent="1">
          <mxGeometry x="-10" y="230" width="120" height="60" as="geometry" />
        </mxCell>
        <mxCell id="m_NOYqVsaq_1kLiZfR2D-23" value="Date" style="ellipse;whiteSpace=wrap;html=1;align=center;" vertex="1" parent="1">
          <mxGeometry x="-325" y="120" width="100" height="40" as="geometry" />
        </mxCell>
        <mxCell id="m_NOYqVsaq_1kLiZfR2D-28" value="Relationship" style="shape=rhombus;perimeter=rhombusPerimeter;whiteSpace=wrap;html=1;align=center;" vertex="1" parent="1">
          <mxGeometry x="-310" y="430" width="120" height="60" as="geometry" />
        </mxCell>
        <mxCell id="m_NOYqVsaq_1kLiZfR2D-32" value="OrderId" style="ellipse;whiteSpace=wrap;html=1;align=center;fontStyle=4;" vertex="1" parent="1">
          <mxGeometry x="-425" y="190" width="100" height="40" as="geometry" />
        </mxCell>
        <mxCell id="m_NOYqVsaq_1kLiZfR2D-34" style="edgeStyle=orthogonalEdgeStyle;rounded=0;orthogonalLoop=1;jettySize=auto;html=1;entryX=0.715;entryY=0.944;entryDx=0;entryDy=0;entryPerimeter=0;endArrow=none;startFill=0;" edge="1" parent="1" source="m_NOYqVsaq_1kLiZfR2D-8" target="m_NOYqVsaq_1kLiZfR2D-32">
          <mxGeometry relative="1" as="geometry" />
        </mxCell>
        <mxCell id="m_NOYqVsaq_1kLiZfR2D-109" style="edgeStyle=orthogonalEdgeStyle;rounded=0;orthogonalLoop=1;jettySize=auto;html=1;entryX=0.5;entryY=0;entryDx=0;entryDy=0;endArrow=none;startFill=0;" edge="1" parent="1" source="m_NOYqVsaq_1kLiZfR2D-13" target="m_NOYqVsaq_1kLiZfR2D-104">
          <mxGeometry relative="1" as="geometry">
            <Array as="points">
              <mxPoint x="120" y="780" />
              <mxPoint x="120" y="780" />
            </Array>
          </mxGeometry>
        </mxCell>
        <mxCell id="m_NOYqVsaq_1kLiZfR2D-13" value="&lt;span style=&quot;font-size: 16px;&quot;&gt;Product&lt;/span&gt;" style="rounded=0;whiteSpace=wrap;html=1;" vertex="1" parent="1">
          <mxGeometry x="60" y="690" width="160" height="60" as="geometry" />
        </mxCell>
        <mxCell id="m_NOYqVsaq_1kLiZfR2D-93" value="" style="edgeStyle=orthogonalEdgeStyle;rounded=0;orthogonalLoop=1;jettySize=auto;html=1;endArrow=none;startFill=0;" edge="1" parent="1" source="m_NOYqVsaq_1kLiZfR2D-3" target="m_NOYqVsaq_1kLiZfR2D-92">
          <mxGeometry relative="1" as="geometry">
            <Array as="points">
              <mxPoint x="220" y="350" />
              <mxPoint x="220" y="350" />
            </Array>
          </mxGeometry>
        </mxCell>
        <mxCell id="m_NOYqVsaq_1kLiZfR2D-3" value="Shopper" style="rounded=0;whiteSpace=wrap;html=1;" vertex="1" parent="1">
          <mxGeometry x="160" y="230" width="120" height="60" as="geometry" />
        </mxCell>
        <mxCell id="m_NOYqVsaq_1kLiZfR2D-38" value="OrderId" style="ellipse;whiteSpace=wrap;html=1;align=center;" vertex="1" parent="1">
          <mxGeometry x="-850" y="510" width="100" height="40" as="geometry" />
        </mxCell>
        <mxCell id="m_NOYqVsaq_1kLiZfR2D-43" value="UserId" style="ellipse;whiteSpace=wrap;html=1;align=center;fontStyle=4;" vertex="1" parent="1">
          <mxGeometry x="150" y="30" width="100" height="40" as="geometry" />
        </mxCell>
        <mxCell id="m_NOYqVsaq_1kLiZfR2D-48" value="Relationship" style="shape=rhombus;perimeter=rhombusPerimeter;whiteSpace=wrap;html=1;align=center;" vertex="1" parent="1">
          <mxGeometry x="290" y="720" width="120" height="60" as="geometry" />
        </mxCell>
        <mxCell id="m_NOYqVsaq_1kLiZfR2D-50" value="Amount" style="ellipse;whiteSpace=wrap;html=1;align=center;" vertex="1" parent="1">
          <mxGeometry x="-200" y="150" width="100" height="40" as="geometry" />
        </mxCell>
        <mxCell id="m_NOYqVsaq_1kLiZfR2D-57" value="UserName" style="ellipse;whiteSpace=wrap;html=1;align=center;" vertex="1" parent="1">
          <mxGeometry x="310" y="20" width="100" height="40" as="geometry" />
        </mxCell>
        <mxCell id="m_NOYqVsaq_1kLiZfR2D-60" value="" style="endArrow=none;html=1;rounded=0;entryX=0.994;entryY=0.379;entryDx=0;entryDy=0;entryPerimeter=0;exitX=0;exitY=0.5;exitDx=0;exitDy=0;" edge="1" parent="1" source="m_NOYqVsaq_1kLiZfR2D-20">
          <mxGeometry relative="1" as="geometry">
            <mxPoint x="-10" y="257" as="sourcePoint" />
            <mxPoint x="-90.72000000000003" y="259.74" as="targetPoint" />
          </mxGeometry>
        </mxCell>
        <mxCell id="m_NOYqVsaq_1kLiZfR2D-61" value="N" style="resizable=0;html=1;whiteSpace=wrap;align=right;verticalAlign=bottom;" connectable="0" vertex="1" parent="m_NOYqVsaq_1kLiZfR2D-60">
          <mxGeometry x="1" relative="1" as="geometry">
            <mxPoint x="20" as="offset" />
          </mxGeometry>
        </mxCell>
        <mxCell id="m_NOYqVsaq_1kLiZfR2D-66" value="" style="endArrow=none;html=1;rounded=0;entryX=0;entryY=0.5;entryDx=0;entryDy=0;" edge="1" parent="1">
          <mxGeometry relative="1" as="geometry">
            <mxPoint x="107" y="260" as="sourcePoint" />
            <mxPoint x="161" y="260" as="targetPoint" />
          </mxGeometry>
        </mxCell>
        <mxCell id="m_NOYqVsaq_1kLiZfR2D-67" value="1" style="resizable=0;html=1;whiteSpace=wrap;align=right;verticalAlign=bottom;" connectable="0" vertex="1" parent="m_NOYqVsaq_1kLiZfR2D-66">
          <mxGeometry x="1" relative="1" as="geometry">
            <mxPoint x="-9" as="offset" />
          </mxGeometry>
        </mxCell>
        <mxCell id="m_NOYqVsaq_1kLiZfR2D-72" value="" style="edgeStyle=orthogonalEdgeStyle;rounded=0;orthogonalLoop=1;jettySize=auto;html=1;endArrow=none;startFill=0;" edge="1" parent="1" source="m_NOYqVsaq_1kLiZfR2D-69" target="m_NOYqVsaq_1kLiZfR2D-71">
          <mxGeometry relative="1" as="geometry">
            <Array as="points">
              <mxPoint x="220" y="510" />
              <mxPoint x="220" y="510" />
            </Array>
          </mxGeometry>
        </mxCell>
        <mxCell id="m_NOYqVsaq_1kLiZfR2D-69" value="Categories" style="whiteSpace=wrap;html=1;align=center;" vertex="1" parent="1">
          <mxGeometry x="100" y="470" width="100" height="40" as="geometry" />
        </mxCell>
        <mxCell id="m_NOYqVsaq_1kLiZfR2D-74" style="edgeStyle=orthogonalEdgeStyle;rounded=0;orthogonalLoop=1;jettySize=auto;html=1;endArrow=none;startFill=0;" edge="1" parent="1" source="m_NOYqVsaq_1kLiZfR2D-71">
          <mxGeometry relative="1" as="geometry">
            <mxPoint x="200" y="480" as="targetPoint" />
            <Array as="points">
              <mxPoint x="200" y="480" />
            </Array>
          </mxGeometry>
        </mxCell>
        <mxCell id="m_NOYqVsaq_1kLiZfR2D-71" value="SubCateor" style="shape=rhombus;perimeter=rhombusPerimeter;whiteSpace=wrap;html=1;align=center;" vertex="1" parent="1">
          <mxGeometry x="260" y="480" width="120" height="60" as="geometry" />
        </mxCell>
        <mxCell id="m_NOYqVsaq_1kLiZfR2D-78" value="" style="endArrow=none;html=1;rounded=0;exitX=0.5;exitY=1;exitDx=0;exitDy=0;" edge="1" parent="1" source="m_NOYqVsaq_1kLiZfR2D-48" target="m_NOYqVsaq_1kLiZfR2D-15">
          <mxGeometry relative="1" as="geometry">
            <mxPoint x="150" y="910" as="sourcePoint" />
            <mxPoint x="310" y="910" as="targetPoint" />
          </mxGeometry>
        </mxCell>
        <mxCell id="m_NOYqVsaq_1kLiZfR2D-79" value="N" style="resizable=0;html=1;whiteSpace=wrap;align=right;verticalAlign=bottom;" connectable="0" vertex="1" parent="m_NOYqVsaq_1kLiZfR2D-78">
          <mxGeometry x="1" relative="1" as="geometry" />
        </mxCell>
        <mxCell id="m_NOYqVsaq_1kLiZfR2D-80" value="" style="endArrow=none;html=1;rounded=0;exitX=0.5;exitY=0;exitDx=0;exitDy=0;entryX=1;entryY=0.5;entryDx=0;entryDy=0;" edge="1" parent="1" source="m_NOYqVsaq_1kLiZfR2D-48" target="m_NOYqVsaq_1kLiZfR2D-13">
          <mxGeometry relative="1" as="geometry">
            <mxPoint x="80" y="630" as="sourcePoint" />
            <mxPoint x="240" y="630" as="targetPoint" />
          </mxGeometry>
        </mxCell>
        <mxCell id="m_NOYqVsaq_1kLiZfR2D-81" value="1" style="resizable=0;html=1;whiteSpace=wrap;align=right;verticalAlign=bottom;" connectable="0" vertex="1" parent="m_NOYqVsaq_1kLiZfR2D-80">
          <mxGeometry x="1" relative="1" as="geometry">
            <mxPoint x="12" y="20" as="offset" />
          </mxGeometry>
        </mxCell>
        <mxCell id="m_NOYqVsaq_1kLiZfR2D-82" value="Relationship" style="shape=rhombus;perimeter=rhombusPerimeter;whiteSpace=wrap;html=1;align=center;" vertex="1" parent="1">
          <mxGeometry x="90" y="570" width="120" height="60" as="geometry" />
        </mxCell>
        <mxCell id="m_NOYqVsaq_1kLiZfR2D-86" value="" style="endArrow=none;html=1;rounded=0;exitX=0.5;exitY=1;exitDx=0;exitDy=0;entryX=0.573;entryY=0.004;entryDx=0;entryDy=0;entryPerimeter=0;" edge="1" parent="1" source="m_NOYqVsaq_1kLiZfR2D-82" target="m_NOYqVsaq_1kLiZfR2D-13">
          <mxGeometry relative="1" as="geometry">
            <mxPoint x="80" y="640" as="sourcePoint" />
            <mxPoint x="150" y="680" as="targetPoint" />
          </mxGeometry>
        </mxCell>
        <mxCell id="m_NOYqVsaq_1kLiZfR2D-87" value="N" style="resizable=0;html=1;whiteSpace=wrap;align=right;verticalAlign=bottom;" connectable="0" vertex="1" parent="m_NOYqVsaq_1kLiZfR2D-86">
          <mxGeometry x="1" relative="1" as="geometry" />
        </mxCell>
        <mxCell id="m_NOYqVsaq_1kLiZfR2D-88" value="" style="endArrow=none;html=1;rounded=0;entryX=0.5;entryY=1;entryDx=0;entryDy=0;" edge="1" parent="1" source="m_NOYqVsaq_1kLiZfR2D-82" target="m_NOYqVsaq_1kLiZfR2D-69">
          <mxGeometry relative="1" as="geometry">
            <mxPoint x="80" y="570" as="sourcePoint" />
            <mxPoint x="240" y="570" as="targetPoint" />
          </mxGeometry>
        </mxCell>
        <mxCell id="m_NOYqVsaq_1kLiZfR2D-89" value="M" style="resizable=0;html=1;whiteSpace=wrap;align=right;verticalAlign=bottom;" connectable="0" vertex="1" parent="m_NOYqVsaq_1kLiZfR2D-88">
          <mxGeometry x="1" relative="1" as="geometry">
            <mxPoint y="19" as="offset" />
          </mxGeometry>
        </mxCell>
        <mxCell id="m_NOYqVsaq_1kLiZfR2D-90" value="" style="endArrow=none;html=1;rounded=0;exitX=0.5;exitY=1;exitDx=0;exitDy=0;entryX=1;entryY=0.5;entryDx=0;entryDy=0;" edge="1" parent="1" source="m_NOYqVsaq_1kLiZfR2D-28" target="m_NOYqVsaq_1kLiZfR2D-10">
          <mxGeometry relative="1" as="geometry">
            <mxPoint x="-520" y="560" as="sourcePoint" />
            <mxPoint x="-250" y="570" as="targetPoint" />
            <Array as="points">
              <mxPoint x="-250" y="590" />
            </Array>
          </mxGeometry>
        </mxCell>
        <mxCell id="m_NOYqVsaq_1kLiZfR2D-91" value="N" style="resizable=0;html=1;whiteSpace=wrap;align=right;verticalAlign=bottom;" connectable="0" vertex="1" parent="m_NOYqVsaq_1kLiZfR2D-90">
          <mxGeometry x="1" relative="1" as="geometry">
            <mxPoint x="14" as="offset" />
          </mxGeometry>
        </mxCell>
        <mxCell id="m_NOYqVsaq_1kLiZfR2D-92" value="DeliveryAddress" style="ellipse;shape=doubleEllipse;margin=3;whiteSpace=wrap;html=1;align=center;" vertex="1" parent="1">
          <mxGeometry x="170" y="380" width="100" height="40" as="geometry" />
        </mxCell>
        <mxCell id="m_NOYqVsaq_1kLiZfR2D-96" value="" style="edgeStyle=orthogonalEdgeStyle;rounded=0;orthogonalLoop=1;jettySize=auto;html=1;endArrow=none;startFill=0;entryX=0.465;entryY=1.005;entryDx=0;entryDy=0;entryPerimeter=0;exitX=0.003;exitY=0.375;exitDx=0;exitDy=0;exitPerimeter=0;" edge="1" parent="1" source="m_NOYqVsaq_1kLiZfR2D-100" target="m_NOYqVsaq_1kLiZfR2D-2">
          <mxGeometry relative="1" as="geometry">
            <mxPoint x="349.5" y="210" as="sourcePoint" />
            <mxPoint x="348.20000000000005" y="148.45000000000005" as="targetPoint" />
            <Array as="points">
              <mxPoint x="350" y="170" />
            </Array>
          </mxGeometry>
        </mxCell>
        <mxCell id="m_NOYqVsaq_1kLiZfR2D-98" value="OrderDetails" style="ellipse;whiteSpace=wrap;html=1;align=center;" vertex="1" parent="1">
          <mxGeometry x="-830" y="410" width="100" height="40" as="geometry" />
        </mxCell>
        <mxCell id="m_NOYqVsaq_1kLiZfR2D-100" value="isA" style="triangle;whiteSpace=wrap;html=1;direction=south;" vertex="1" parent="1">
          <mxGeometry x="310" y="170" width="80" height="60" as="geometry" />
        </mxCell>
        <mxCell id="m_NOYqVsaq_1kLiZfR2D-104" value="ProductId" style="ellipse;whiteSpace=wrap;html=1;align=center;" vertex="1" parent="1">
          <mxGeometry x="70" y="840" width="100" height="40" as="geometry" />
        </mxCell>
        <mxCell id="m_NOYqVsaq_1kLiZfR2D-105" value="ProductName" style="ellipse;whiteSpace=wrap;html=1;align=center;" vertex="1" parent="1">
          <mxGeometry x="180" y="840" width="100" height="40" as="geometry" />
        </mxCell>
        <mxCell id="m_NOYqVsaq_1kLiZfR2D-106" value="ProductDetails" style="ellipse;whiteSpace=wrap;html=1;align=center;" vertex="1" parent="1">
          <mxGeometry x="-40" y="840" width="100" height="40" as="geometry" />
        </mxCell>
        <mxCell id="m_NOYqVsaq_1kLiZfR2D-107" value="InStock" style="ellipse;whiteSpace=wrap;html=1;align=center;" vertex="1" parent="1">
          <mxGeometry x="-80" y="780" width="100" height="40" as="geometry" />
        </mxCell>
        <mxCell id="m_NOYqVsaq_1kLiZfR2D-108" value="Amount" style="ellipse;whiteSpace=wrap;html=1;align=center;" vertex="1" parent="1">
          <mxGeometry x="210" y="770" width="100" height="40" as="geometry" />
        </mxCell>
        <mxCell id="m_NOYqVsaq_1kLiZfR2D-110" style="edgeStyle=orthogonalEdgeStyle;rounded=0;orthogonalLoop=1;jettySize=auto;html=1;entryX=0.773;entryY=0.065;entryDx=0;entryDy=0;entryPerimeter=0;exitX=-0.003;exitY=0.939;exitDx=0;exitDy=0;exitPerimeter=0;endArrow=none;startFill=0;" edge="1" parent="1" source="m_NOYqVsaq_1kLiZfR2D-13" target="m_NOYqVsaq_1kLiZfR2D-106">
          <mxGeometry relative="1" as="geometry">
            <mxPoint x="69.44000000000005" y="748.5600000000001" as="sourcePoint" />
            <mxPoint x="38.5" y="841.32" as="targetPoint" />
            <Array as="points">
              <mxPoint x="60" y="749" />
              <mxPoint x="37" y="749" />
            </Array>
          </mxGeometry>
        </mxCell>
        <mxCell id="m_NOYqVsaq_1kLiZfR2D-111" style="edgeStyle=orthogonalEdgeStyle;rounded=0;orthogonalLoop=1;jettySize=auto;html=1;entryX=0.74;entryY=0.06;entryDx=0;entryDy=0;entryPerimeter=0;exitX=0.001;exitY=0.843;exitDx=0;exitDy=0;exitPerimeter=0;endArrow=none;startFill=0;" edge="1" parent="1" source="m_NOYqVsaq_1kLiZfR2D-13" target="m_NOYqVsaq_1kLiZfR2D-107">
          <mxGeometry relative="1" as="geometry">
            <mxPoint x="60" y="740" as="sourcePoint" />
            <mxPoint x="50" y="860" as="targetPoint" />
            <Array as="points">
              <mxPoint x="-5" y="741" />
              <mxPoint x="-5" y="781" />
              <mxPoint x="-6" y="781" />
            </Array>
          </mxGeometry>
        </mxCell>
        <mxCell id="m_NOYqVsaq_1kLiZfR2D-112" style="edgeStyle=orthogonalEdgeStyle;rounded=0;orthogonalLoop=1;jettySize=auto;html=1;exitX=0.564;exitY=1.01;exitDx=0;exitDy=0;exitPerimeter=0;endArrow=none;startFill=0;" edge="1" parent="1" source="m_NOYqVsaq_1kLiZfR2D-13" target="m_NOYqVsaq_1kLiZfR2D-105">
          <mxGeometry relative="1" as="geometry">
            <mxPoint x="150" y="760" as="sourcePoint" />
            <mxPoint x="130" y="850" as="targetPoint" />
            <Array as="points">
              <mxPoint x="150" y="761" />
              <mxPoint x="180" y="761" />
            </Array>
          </mxGeometry>
        </mxCell>
        <mxCell id="m_NOYqVsaq_1kLiZfR2D-113" style="edgeStyle=orthogonalEdgeStyle;rounded=0;orthogonalLoop=1;jettySize=auto;html=1;exitX=0.83;exitY=1.003;exitDx=0;exitDy=0;exitPerimeter=0;endArrow=none;startFill=0;" edge="1" parent="1" source="m_NOYqVsaq_1kLiZfR2D-13" target="m_NOYqVsaq_1kLiZfR2D-108">
          <mxGeometry relative="1" as="geometry">
            <mxPoint x="160" y="761" as="sourcePoint" />
            <mxPoint x="190" y="870" as="targetPoint" />
            <Array as="points">
              <mxPoint x="193" y="771" />
              <mxPoint x="193" y="771" />
              <mxPoint x="193" y="790" />
            </Array>
          </mxGeometry>
        </mxCell>
        <mxCell id="m_NOYqVsaq_1kLiZfR2D-114" value="Status" style="ellipse;whiteSpace=wrap;html=1;align=center;" vertex="1" parent="1">
          <mxGeometry x="-750" y="620" width="100" height="40" as="geometry" />
        </mxCell>
      </root>
    </mxGraphModel>
  </diagram>
</mxfile>
